<svg xmlns="http://www.w3.org/2000/svg" viewBox="0 0 720 720" fill-rule="evenodd" clip-rule="evenodd" stroke-linejoin="round" stroke-miterlimit="2">
  <g transform="translate(9.5, 5)">
    <g transform="matrix(1,0,0,1,-551.717851,-7000.205706)">
      <g transform="matrix(2.036,0,0,2.734669,0,0)">
        <g transform="matrix(-2.185897,0,0,1.627432,694.065205,2516.025486)">
          <path d="M155.219,60.666C160.112,69.098 180.046,103.674 181.732,106.365C182.691,107.897 191.559,123.665 192.731,125.371C195.285,129.092 191.117,128.319 190.5,128.311C189.022,128.293 139.915,128.299 139.496,128.308C135.398,128.401 135.863,129.95 128.267,138.292C124.515,142.411 120.643,147.439 116.246,152.274C111.816,157.148 112.024,157.319 100.459,170.465C100.21,170.749 94.883,177.13 93.573,178.565C88.706,183.895 89.05,184.2 88.528,184.546C87.242,185.398 86.67,185.022 86.71,183.473C86.838,178.511 86.904,178.532 86.903,167.5C86.901,156.499 86.899,134.498 86.899,134.498C86.899,134.498 86.878,134.794 86.994,128.636C84.043,128.69 37.302,128.743 37.299,128.505C37.28,127.217 37.295,40.86 37.297,33.5C37.297,30.887 37.017,29.344 39.447,29.068C40.419,28.958 119.647,29.147 130.5,28.984C136.745,28.89 136.957,29.469 137.59,30.434C137.967,31.008 137.939,31.02 142.005,37.796C142.147,38.032 152.402,55.984 153.826,58.313C153.941,58.5 154.617,59.606 155.219,60.666Z" style="fill:rgb(0,212,170);"/>
        </g>
      </g>
    </g>
  </g>
</svg>
