<?xml version="1.0" encoding="UTF-8" standalone="no"?>
<!DOCTYPE svg PUBLIC "-//W3C//DTD SVG 1.1//EN" "http://www.w3.org/Graphics/SVG/1.1/DTD/svg11.dtd">
<svg width="100%" height="100%" viewBox="0 0 4153 686" version="1.1" xmlns="http://www.w3.org/2000/svg" xmlns:xlink="http://www.w3.org/1999/xlink" xml:space="preserve" xmlns:serif="http://www.serif.com/" style="fill-rule:evenodd;clip-rule:evenodd;stroke-linejoin:round;stroke-miterlimit:2;">
    <g transform="matrix(1,0,0,1,-448.795315,-8700.405681)">
        <g transform="matrix(2.036,0,0,2.734669,0,0)">
            <g transform="matrix(2.046496,0,0,1.523646,740.615158,3184.137232)">
                <path d="M0,104.11L-23.414,67.429L-28.12,73.79C-28.814,74.727 -29.188,75.862 -29.188,77.028L-29.188,104.11L-60.719,104.11L-60.719,0L-29.188,0L-29.188,39.022L-1.873,0L36.679,0L-2.654,48.386L38.397,104.11L0,104.11Z" style="fill:rgb(250,250,250);fill-rule:nonzero;"/>
            </g>
        </g>
        <g transform="matrix(2.036,0,0,2.734669,0,0)">
            <g transform="matrix(2.046496,0,0,1.523646,923.017548,3303.286329)">
                <path d="M0,-52.134C-15.142,-52.134 -24.972,-40.583 -24.972,-26.066C-24.972,-11.55 -15.142,-0 0,-0C15.142,-0 24.976,-11.55 24.976,-26.066C24.976,-40.583 15.142,-52.134 0,-52.134M0,-79.917C32.153,-79.917 56.973,-58.065 56.973,-26.066C56.973,5.931 32.153,27.783 0,27.783C-32.153,27.783 -56.973,5.931 -56.973,-26.066C-56.973,-58.065 -32.153,-79.917 0,-79.917" style="fill:rgb(250,250,250);fill-rule:nonzero;"/>
            </g>
        </g>
        <g transform="matrix(2.036,0,0,2.734669,0,0)">
            <g transform="matrix(2.046496,0,0,1.523646,1205.722005,3184.137232)">
                <path d="M0,104.11L-38.397,48.231L-38.397,104.11L-69.927,104.11L-69.927,0L-37.46,0L-1.247,52.445L-1.247,0L30.28,0L30.28,104.11L0,104.11Z" style="fill:rgb(250,250,250);fill-rule:nonzero;"/>
            </g>
        </g>
        <g transform="matrix(2.036,0,0,2.734669,0,0)">
            <g transform="matrix(2.046496,0,0,1.523646,1347.880655,3184.137232)">
                <path d="M0,104.11L0,27.471L-27.941,27.471L-27.941,0L59.312,0L59.312,27.471L31.531,27.471L31.531,104.11L0,104.11Z" style="fill:rgb(250,250,250);fill-rule:nonzero;"/>
            </g>
        </g>
        <g transform="matrix(2.036,0,0,2.734669,0,0)">
            <g transform="matrix(2.046496,0,0,1.523646,1492.273875,3184.137232)">
                <path d="M0,104.11L0,0L78.98,0L78.98,26.221L31.527,26.221L31.527,38.397L77.885,38.397L77.885,64.62L31.527,64.62L31.527,77.887L78.98,77.887L78.98,104.11L0,104.11Z" style="fill:rgb(250,250,250);fill-rule:nonzero;"/>
            </g>
        </g>
        <g transform="matrix(2.036,0,0,2.734669,0,0)">
            <g transform="matrix(2.046496,0,0,1.523646,1660.444314,3184.137232)">
                <path d="M0,104.11L41.054,48.386L1.717,0L40.273,0L67.588,39.022L67.588,0L99.115,0L99.115,104.11L67.588,104.11L67.588,77.029C67.588,75.863 67.214,74.727 66.52,73.79L61.81,67.429L38.4,104.11L0,104.11Z" style="fill:rgb(250,250,250);fill-rule:nonzero;"/>
            </g>
        </g>
        <g transform="matrix(2.036,0,0,2.734669,0,0)">
            <g transform="matrix(2.046496,0,0,1.523646,1914.202102,3242.58733)">
                <path d="M0,27.697C0.013,27.679 0.038,27.676 0.054,27.691C7.857,35.171 19.551,41.087 33.583,41.087C39.513,41.087 45.131,39.057 45.131,34.998C45.131,30.94 40.764,28.912 30.459,27.039C13.289,23.917 -12.93,19.858 -12.93,-6.208C-12.93,-23.846 1.742,-39.924 30.304,-39.924C47.318,-39.924 62.616,-35.084 74.478,-25.408L57.619,-3.087C48.566,-9.955 36.859,-13.388 28.587,-13.388C20.784,-13.388 19.067,-10.579 19.067,-7.925C19.067,-3.866 23.279,-2.462 34.364,-0.589C51.534,2.376 76.976,7.37 76.976,31.408C76.976,54.354 59.962,67.621 32.021,67.621C9.858,67.621 -5.283,61.066 -16.365,51.076L0,27.697Z" style="fill:rgb(250,250,250);fill-rule:nonzero;"/>
            </g>
        </g>
        <g transform="matrix(2.036,0,0,2.734669,0,0)">
            <g transform="matrix(2.046496,0,0,1.523646,2138.503233,3184.137232)">
                <path d="M0,104.11L0,27.471L-27.941,27.471L-27.941,0L59.312,0L59.312,27.471L31.527,27.471L31.527,104.11L0,104.11Z" style="fill:rgb(250,250,250);fill-rule:nonzero;"/>
            </g>
        </g>
        <g transform="matrix(2.036,0,0,2.734669,0,0)">
            <g transform="matrix(2.046496,0,0,1.523646,343.94827,3432.129928)">
                <path d="M0,-164.48L104.124,-164.48L104.124,-60.356L52.062,-60.356L52.062,0L0,-60.356L-60.356,-60.356L0,-164.48Z" style="fill:rgb(75,190,160);fill-rule:nonzero;"/>
            </g>
        </g>
    </g>
</svg>
