<?xml version="1.0" encoding="UTF-8" standalone="no"?><!DOCTYPE svg PUBLIC "-//W3C//DTD SVG 1.1//EN" "http://www.w3.org/Graphics/SVG/1.1/DTD/svg11.dtd"><svg width="100%" height="100%" viewBox="0 0 3981 529" version="1.1" xmlns="http://www.w3.org/2000/svg" xmlns:xlink="http://www.w3.org/1999/xlink" xml:space="preserve" xmlns:serif="http://www.serif.com/" style="fill-rule:evenodd;clip-rule:evenodd;stroke-linejoin:round;stroke-miterlimit:2;"><g transform="matrix(1,0,0,1,-151.996539,-3725.061147)"><g transform="matrix(1.894644,0,0,1.48662,0,0)"><g transform="matrix(1.170162,0,0,1.170162,-40.208618,167.560337)"><g transform="matrix(0.409893,0,0,0.548716,-565.206466,1506.796334)"><path d="M1630,1145.366l0,-249.896l433.792,0l0.193,251.816l-176.438,-1.92l-119.547,162.592l0,-162.592l-137.999,0Z" style="fill:#afb5bc;"/></g><g transform="matrix(0.430546,0,0,0.548716,-745.435351,1621.909467)"><path d="M2177,1024.47l0,-218.781l412.983,0l0,218.781l-129.09,0l0,215.011l-2.424,0l-148.464,-215.011l-133.006,0Z" style="fill:#fafafa;"/></g></g></g><g transform="matrix(1.894644,0,0,1.48662,0,0)"><g transform="matrix(2.163692,0,0,2.807819,574.846958,2537.876398)"><path d="M0,104.11l-23.414,-36.681l-4.706,6.361c-0.694,0.937 -1.068,2.072 -1.068,3.238l0,27.082l-31.531,0l0,-104.11l31.531,0l0,39.022l27.315,-39.022l38.552,0l-39.333,48.386l41.051,55.724l-38.397,0Z" style="fill:#fafafa;fill-rule:nonzero;"/></g></g><g transform="matrix(1.894644,0,0,1.48662,0,0)"><g transform="matrix(2.163692,0,0,2.807819,767.694868,2757.447877)"><path d="M0,-52.134c-15.142,0 -24.972,11.551 -24.972,26.068c0,14.516 9.83,26.066 24.972,26.066c15.142,0 24.976,-11.55 24.976,-26.066c0,-14.517 -9.834,-26.068 -24.976,-26.068m0,-27.783c32.153,0 56.973,21.852 56.973,53.851c0,31.997 -24.82,53.849 -56.973,53.849c-32.153,0 -56.973,-21.852 -56.973,-53.849c0,-31.999 24.82,-53.851 56.973,-53.851" style="fill:#fafafa;fill-rule:nonzero;"/></g></g><g transform="matrix(1.894644,0,0,1.48662,0,0)"><g transform="matrix(2.163692,0,0,2.807819,1066.588779,2537.876398)"><path d="M0,104.11l-38.397,-55.879l0,55.879l-31.53,0l0,-104.11l32.467,0l36.213,52.445l0,-52.445l31.527,0l0,104.11l-30.28,0Z" style="fill:#fafafa;fill-rule:nonzero;"/></g></g><g transform="matrix(1.894644,0,0,1.48662,0,0)"><g transform="matrix(2.163692,0,0,2.807819,1216.888337,2537.876398)"><path d="M0,104.11l0,-76.639l-27.941,0l0,-27.471l87.253,0l0,27.471l-27.781,0l0,76.639l-31.531,0Z" style="fill:#fafafa;fill-rule:nonzero;"/></g></g><g transform="matrix(1.894644,0,0,1.48662,0,0)"><g transform="matrix(2.163692,0,0,2.807819,1369.550431,2537.876398)"><path d="M0,104.11l0,-104.11l78.98,0l0,26.221l-47.453,0l0,12.176l46.358,0l0,26.223l-46.358,0l0,13.267l47.453,0l0,26.223l-78.98,0Z" style="fill:#fafafa;fill-rule:nonzero;"/></g></g><g transform="matrix(1.894644,0,0,1.48662,0,0)"><g transform="matrix(2.163692,0,0,2.807819,1547.351595,2537.876398)"><path d="M0,104.11l41.054,-55.724l-39.337,-48.386l38.556,0l27.315,39.022l0,-39.022l31.527,0l0,104.11l-31.527,0l0,-27.081c0,-1.166 -0.375,-2.302 -1.068,-3.239l-4.71,-6.361l-23.41,36.681l-38.4,0Z" style="fill:#fafafa;fill-rule:nonzero;"/></g></g><g transform="matrix(1.894644,0,0,1.48662,0,0)"><g transform="matrix(2.163692,0,0,2.807819,1815.64095,2645.589967)"><path d="M0,27.697c0.013,-0.018 0.038,-0.021 0.054,-0.006c7.803,7.48 19.497,13.396 33.529,13.396c5.93,0 11.548,-2.03 11.548,-6.089c0,-4.058 -4.367,-6.086 -14.672,-7.959c-17.17,-3.122 -43.389,-7.181 -43.389,-33.247c-0,-17.638 14.672,-33.716 43.234,-33.716c17.014,0 32.312,4.84 44.174,14.516l-16.859,22.321c-9.053,-6.868 -20.76,-10.301 -29.032,-10.301c-7.803,0 -9.52,2.809 -9.52,5.463c0,4.059 4.212,5.463 15.297,7.336c17.17,2.965 42.612,7.959 42.612,31.997c0,22.946 -17.014,36.213 -44.955,36.213c-22.163,0 -37.304,-6.555 -48.386,-16.545l16.365,-23.379Z" style="fill:#fafafa;fill-rule:nonzero;"/></g></g><g transform="matrix(1.894644,0,0,1.48662,0,0)"><g transform="matrix(2.163692,0,0,2.807819,2052.786989,2537.876398)"><path d="M0,104.11l0,-76.639l-27.94,0l0,-27.471l87.252,0l0,27.471l-27.785,0l0,76.639l-31.527,0Z" style="fill:#fafafa;fill-rule:nonzero;"/></g></g></g></svg>