<?xml version="1.0" encoding="UTF-8" standalone="no"?>
<!DOCTYPE svg PUBLIC "-//W3C//DTD SVG 1.1//EN" "http://www.w3.org/Graphics/SVG/1.1/DTD/svg11.dtd">
<svg width="100%" height="100%" viewBox="0 0 4122 704" version="1.1" xmlns="http://www.w3.org/2000/svg" xmlns:xlink="http://www.w3.org/1999/xlink" xml:space="preserve" xmlns:serif="http://www.serif.com/" style="fill-rule:evenodd;clip-rule:evenodd;stroke-linejoin:round;stroke-miterlimit:2;">
    <g transform="matrix(1,0,0,1,-551.717851,-7000.205706)">
        <g transform="matrix(2.036,0,0,2.734669,0,0)">
            <g transform="matrix(1,0,0,1,93.351201,5.241608)">
                <g transform="matrix(2.013471,0,0,1.526386,707.139854,2557.179279)">
                    <path d="M0,104.11L-23.414,67.429L-28.12,73.79C-28.814,74.727 -29.188,75.862 -29.188,77.028L-29.188,104.11L-60.719,104.11L-60.719,0L-29.188,0L-29.188,39.022L-1.873,0L36.679,0L-2.654,48.386L38.397,104.11L0,104.11Z" style="fill:rgb(250,250,250);fill-rule:nonzero;"/>
                </g>
                <g transform="matrix(2.013471,0,0,1.526386,886.598713,2676.542631)">
                    <path d="M0,-52.134C-15.142,-52.134 -24.972,-40.583 -24.972,-26.066C-24.972,-11.55 -15.142,-0 0,-0C15.142,-0 24.976,-11.55 24.976,-26.066C24.976,-40.583 15.142,-52.134 0,-52.134M0,-79.917C32.153,-79.917 56.973,-58.065 56.973,-26.066C56.973,5.931 32.153,27.783 0,27.783C-32.153,27.783 -56.973,5.931 -56.973,-26.066C-56.973,-58.065 -32.153,-79.917 0,-79.917" style="fill:rgb(250,250,250);fill-rule:nonzero;"/>
                </g>
                <g transform="matrix(2.013471,0,0,1.526386,1164.741008,2557.179279)">
                    <path d="M0,104.11L-38.397,48.231L-38.397,104.11L-69.927,104.11L-69.927,0L-37.46,0L-1.247,52.445L-1.247,0L30.28,0L30.28,104.11L0,104.11Z" style="fill:rgb(250,250,250);fill-rule:nonzero;"/>
                </g>
                <g transform="matrix(2.013471,0,0,1.526386,1304.605563,2557.179279)">
                    <path d="M0,104.11L0,27.471L-27.941,27.471L-27.941,0L59.312,0L59.312,27.471L31.531,27.471L31.531,104.11L0,104.11Z" style="fill:rgb(250,250,250);fill-rule:nonzero;"/>
                </g>
                <g transform="matrix(2.013471,0,0,1.526386,1446.668628,2557.179279)">
                    <path d="M0,104.11L0,0L78.98,0L78.98,26.221L31.527,26.221L31.527,38.397L77.885,38.397L77.885,64.62L31.527,64.62L31.527,77.887L78.98,77.887L78.98,104.11L0,104.11Z" style="fill:rgb(250,250,250);fill-rule:nonzero;"/>
                </g>
                <g transform="matrix(2.013471,0,0,1.526386,1612.125407,2557.179279)">
                    <path d="M0,104.11L41.054,48.386L1.717,0L40.273,0L67.588,39.022L67.588,0L99.115,0L99.115,104.11L67.588,104.11L67.588,77.029C67.588,75.863 67.213,74.727 66.52,73.79L61.81,67.429L38.4,104.11L0,104.11Z" style="fill:rgb(250,250,250);fill-rule:nonzero;"/>
                </g>
                <g transform="matrix(2.013471,0,0,1.526386,1861.787959,2615.734482)">
                    <path d="M0,27.697C0.013,27.679 0.038,27.676 0.054,27.691C7.857,35.171 19.551,41.087 33.583,41.087C39.513,41.087 45.131,39.057 45.131,34.998C45.131,30.94 40.764,28.912 30.459,27.039C13.289,23.917 -12.93,19.858 -12.93,-6.208C-12.93,-23.846 1.742,-39.924 30.304,-39.924C47.318,-39.924 62.616,-35.084 74.478,-25.408L57.619,-3.087C48.566,-9.955 36.859,-13.388 28.587,-13.388C20.784,-13.388 19.067,-10.579 19.067,-7.925C19.067,-3.866 23.279,-2.462 34.364,-0.589C51.534,2.376 76.976,7.37 76.976,31.408C76.976,54.354 59.962,67.621 32.021,67.621C9.858,67.621 -5.283,61.066 -16.365,51.076L0,27.697Z" style="fill:rgb(250,250,250);fill-rule:nonzero;"/>
                </g>
                <g transform="matrix(2.013471,0,0,1.526386,2082.469415,2557.179279)">
                    <path d="M0,104.11L0,27.471L-27.94,27.471L-27.94,0L59.312,0L59.312,27.471L31.527,27.471L31.527,104.11L0,104.11Z" style="fill:rgb(250,250,250);fill-rule:nonzero;"/>
                </g>
            </g>
        </g>
        <g transform="matrix(2.036,0,0,2.734669,0,0)">
            <g transform="matrix(-2.185897,0,0,1.627432,694.065205,2516.025486)">
                <path d="M155.219,60.666C160.112,69.098 180.046,103.674 181.732,106.365C182.691,107.897 191.559,123.665 192.731,125.371C195.285,129.092 191.117,128.319 190.5,128.311C189.022,128.293 139.915,128.299 139.496,128.308C135.398,128.401 135.863,129.95 128.267,138.292C124.515,142.411 120.643,147.439 116.246,152.274C111.816,157.148 112.024,157.319 100.459,170.465C100.21,170.749 94.883,177.13 93.573,178.565C88.706,183.895 89.05,184.2 88.528,184.546C87.242,185.398 86.67,185.022 86.71,183.473C86.838,178.511 86.904,178.532 86.903,167.5C86.901,156.499 86.899,134.498 86.899,134.498C86.899,134.498 86.878,134.794 86.994,128.636C84.043,128.69 37.302,128.743 37.299,128.505C37.28,127.217 37.295,40.86 37.297,33.5C37.297,30.887 37.017,29.344 39.447,29.068C40.419,28.958 119.647,29.147 130.5,28.984C136.745,28.89 136.957,29.469 137.59,30.434C137.967,31.008 137.939,31.02 142.005,37.796C142.147,38.032 152.402,55.984 153.826,58.313C153.941,58.5 154.617,59.606 155.219,60.666Z" style="fill:rgb(0,212,170);"/>
            </g>
        </g>
    </g>
</svg>
